<svg height="512pt" viewBox="0 0 512 512" width="512pt" xmlns="http://www.w3.org/2000/svg"><path d="m406.625 512h-406.625v-384h512v278.625zm0 0" fill="#e4edfb"/><path d="m0 128h512v64h-512zm0 0" fill="#d7e1f2"/><path d="m96 64h-32v-48c0-8.835938 7.164062-16 16-16s16 7.164062 16 16zm0 0" fill="#bfc9d1"/><path d="m448 64h-32v-48c0-8.835938 7.164062-16 16-16s16 7.164062 16 16zm0 0" fill="#bfc9d1"/><path d="m406.625 406.625v105.375l105.375-105.375zm0 0" fill="#c8d5e8"/><path d="m512 160h-512v-80c0-17.671875 14.328125-32 32-32h448c17.671875 0 32 14.328125 32 32zm0 0" fill="#ff7761"/><path d="m336.6875 436.769531-80.6875-40.898437-80.6875 40.898437 15.40625-86.722656-66.03125-62.03125 91.199219-12.769531 40.113281-78.351563 40.113281 78.351563 91.199219 12.769531-66.03125 62.03125zm0 0" fill="#ffda6b"/><path d="m336.6875 436.769531-80.6875-40.898437-80.6875 40.898437 15.40625-86.722656 105.394531-74.800781 91.199219 12.769531-66.03125 62.03125zm0 0" fill="#f5cd00"/></svg>