<svg xmlns="http://www.w3.org/2000/svg" width="128" height="128" viewBox="0 0 33.867 33.867"><path fill="#06f" d="M 17.483739,10.095929 29.623808,9.7262116 c 0.732556,-0.02231 1.141165,0.1990707 1.333752,0.9062094 l 0.445869,1.637136 c 0.192588,0.707139 -0.01007,1.290362 -0.648962,1.649466 L 20.111107,19.9014 c -0.638889,0.359104 -1.430545,-0.227519 -1.620232,-0.935442 l -1.942578,-7.249797 c -0.189687,-0.707921 0.202887,-1.597923 0.935442,-1.620232 z" paint-order="fill markers stroke"/><path fill="#00a1ff" d="M 6.0807054,6.4585966 18.904931,4.3642687 c 0.723313,-0.1181245 1.400831,0.2361579 1.620232,0.9354414 l 1.942578,6.1914629 c 0.219401,0.699285 -0.266562,1.320676 -0.935442,1.620233 L 9.7664069,18.380734 C 9.0975274,18.680291 5.3573931,6.5767209 6.0807054,6.4585966 Z" paint-order="fill markers stroke"/><path fill="#a8d0ff" style="line-height:normal;font-variant-ligatures:normal;font-variant-position:normal;font-variant-caps:normal;font-variant-numeric:normal;font-variant-alternates:normal;font-variant-east-asian:normal;font-feature-settings:normal;font-variation-settings:normal;text-indent:0;text-align:start;text-decoration-line:none;text-decoration-style:solid;text-decoration-color:#000;text-transform:none;text-orientation:mixed;shape-padding:0;shape-margin:0;inline-size:0;isolation:auto;mix-blend-mode:normal" d="M 3.5636065,4.0722656 9.649934,30.53125 c 0.203397,0.70163 4.331764,-0.03466 4.128516,-0.736328 L 6.1046221,3.3359375 C 5.9373379,2.7572073 3.360359,3.3705929 3.5636065,4.0722656 Z" color="#000" font-family="sans-serif" font-weight="400" overflow="visible" paint-order="fill markers stroke"/><path fill="#00a1ff" d="M4.8149361 1.0583329A2.4313459 2.4313459 0 0 1 7.246282 3.4896788 2.4313459 2.4313459 0 0 1 4.8149361 5.9210247 2.4313459 2.4313459 0 0 1 2.3835902 3.4896788 2.4313459 2.4313459 0 0 1 4.8149361 1.0583329zM7.4470508 27.514555h8.0945822c1.066453 0 1.423147.984018 1.925007 1.925007l.770005 1.443762c.50186.940988-.177961 1.925007-1.244414 1.925007H5.928393c-1.066454 0-1.6782131-.984018-1.1763537-1.925007l.7700044-1.443762c.5018594-.940989.8585532-1.925007 1.9250071-1.925007z" paint-order="fill markers stroke"/><path fill="#fff" d="m 13.423685,13.30924 c 0.660741,0.257368 1.174006,-0.896062 1.85984,-1.076223 0.685881,-0.179974 1.699697,0.572108 2.148649,0.02324 0.448955,-0.548873 -0.489414,-1.39345 -0.448822,-2.101382 0.04059,-0.7079302 1.069336,-1.4397195 0.686066,-2.0363075 C 17.286147,7.5219829 16.19294,8.1534285 15.532196,7.896062 14.87145,7.6386897 14.493384,6.4341563 13.807553,6.6143134 13.121676,6.7942876 13.38445,8.0293111 12.935499,8.5781828 c -0.44895,0.5488722 -1.71136,0.5362214 -1.751952,1.2441477 -0.04059,0.7079245 1.214993,0.8396475 1.598266,1.4362445 0.383271,0.596583 -0.01887,1.7933 0.641876,2.050664 z" paint-order="fill markers stroke"/></svg>