<svg id="Capa_1" enable-background="new 0 0 513.292 513.292" height="512" viewBox="0 0 513.292 513.292" width="512" xmlns="http://www.w3.org/2000/svg"><path d="m470.486 61.96c-26.137-26.309-60.456-40.798-96.636-40.798-48.017 0-91.942 26.124-117.204 67.491-25.262-41.367-69.188-67.491-117.204-67.491-37.364 0-72.43 15.389-98.735 43.331-25.993 27.611-40.448 64.333-40.704 103.403-.388 59.312 41.627 131.694 124.877 215.136 60.663 60.802 120.437 104.408 122.952 106.235 2.629 1.909 5.722 2.863 8.815 2.863 3.109 0 6.22-.965 8.856-2.894 2.496-1.827 61.839-45.428 122.276-106.224 82.895-83.386 125.122-155.695 125.51-214.92.264-40.391-14.937-78.083-42.803-106.132zm-32.194 120.641c-.034 0-.066 0-.101-.001-8.284-.054-14.955-6.814-14.901-15.098.106-16.241-5.807-31.197-16.65-42.112-9.117-9.176-20.762-14.229-32.789-14.229-8.284 0-15-6.716-15-15s6.716-15 15-15c20.078 0 39.28 8.199 54.07 23.085 16.519 16.626 25.528 39.16 25.369 63.452-.055 8.252-6.76 14.903-14.998 14.903z"/></svg>