<svg xmlns="http://www.w3.org/2000/svg" width="26" height="26" viewBox="0 0 26 26"><g transform="translate(0 -1026.362)"><circle cx="13" cy="1039.362" r="13" fill="#239fdb" fill-rule="evenodd"/><path fill="#0b5ecd" style="line-height:normal;text-indent:0;text-align:start;text-decoration-line:none;text-decoration-style:solid;text-decoration-color:#000;text-transform:none;block-progression:tb;isolation:auto;mix-blend-mode:normal" d="M 11.947266 25.947266 A 12.999996 12.999996 0 0 0 13 26 A 12.999996 12.999996 0 0 0 13.919922 25.966797 A 12.999996 12.999996 0 0 0 15.208984 25.810547 A 12.999996 12.999996 0 0 0 16.476562 25.525391 A 12.999996 12.999996 0 0 0 17.710938 25.117188 A 12.999996 12.999996 0 0 0 18.896484 24.585938 A 12.999996 12.999996 0 0 0 20.023438 23.939453 A 12.999996 12.999996 0 0 0 21.080078 23.183594 A 12.999996 12.999996 0 0 0 22.056641 22.326172 A 12.999996 12.999996 0 0 0 22.943359 21.375 A 12.999996 12.999996 0 0 0 23.728516 20.339844 A 12.999996 12.999996 0 0 0 24.408203 19.232422 A 12.999996 12.999996 0 0 0 24.974609 18.0625 A 12.999996 12.999996 0 0 0 25.419922 16.841797 A 12.999996 12.999996 0 0 0 25.740234 15.582031 A 12.999996 12.999996 0 0 0 25.880859 14.65625 L 18.119141 6.8945312 C 17.575508 6.3508313 16.825462 6.0136719 16 6.0136719 C 14.555434 6.0136719 13.341338 7.0459562 13.060547 8.4101562 C 13.020434 8.605042 13 8.8073094 13 9.0136719 C 13 9.231481 13.028884 9.4425371 13.074219 9.6464844 C 13.091639 9.7247515 13.120972 9.7972536 13.144531 9.8730469 C 13.183629 9.999002 13.222394 10.123936 13.277344 10.242188 C 13.312184 10.317196 13.355716 10.385481 13.396484 10.457031 C 13.458922 10.566655 13.524298 10.672761 13.599609 10.773438 C 13.648433 10.838689 13.700108 10.899795 13.753906 10.960938 C 13.798109 11.011242 13.835456 11.067873 13.882812 11.115234 L 14.09375 11.326172 C 14.081239 11.330223 14.069132 11.335717 14.056641 11.339844 C 13.933458 11.380543 13.812488 11.428265 13.691406 11.476562 L 12.101562 9.8867188 C 12.091394 9.8765496 12.078672 9.8693976 12.068359 9.859375 C 11.99214 9.7853048 11.907903 9.7219182 11.824219 9.65625 C 11.761544 9.6070549 11.70325 9.5539018 11.636719 9.5097656 C 11.545346 9.4491526 11.445669 9.4019748 11.347656 9.3515625 C 11.275866 9.3146118 11.207827 9.2713556 11.132812 9.2402344 C 11.032656 9.1987118 10.92561 9.1730844 10.820312 9.1425781 C 10.741645 9.1197733 10.667139 9.0885727 10.585938 9.0722656 C 10.396687 9.0342726 10.200421 9.0136719 10 9.0136719 C 8.3490681 9.0136719 7 10.362772 7 12.013672 C 7 12.234256 7.0297032 12.447953 7.0761719 12.654297 C 7.0915221 12.722475 7.1166942 12.78526 7.1367188 12.851562 C 7.1784261 12.989777 7.2244638 13.124894 7.2851562 13.253906 C 7.3158661 13.319169 7.3534486 13.378777 7.3886719 13.441406 C 7.4540757 13.557824 7.5217138 13.670929 7.6015625 13.777344 C 7.6529192 13.845774 7.7087999 13.90877 7.765625 13.972656 C 7.8062243 14.01834 7.839592 14.070057 7.8828125 14.113281 L 8.1035156 14.333984 C 6.9842385 14.69538 5.9411205 15.373048 5.1152344 16.373047 L 5 16.511719 L 5 19 L 11.947266 25.947266 z " color="#000" font-family="sans-serif" font-weight="400" transform="translate(0 1026.362)"/><path fill="#fff" style="line-height:normal;text-indent:0;text-align:start;text-decoration-line:none;text-decoration-style:solid;text-decoration-color:#000;text-transform:none;block-progression:tb;isolation:auto;mix-blend-mode:normal" d="M 11,2 C 9.3490681,2 8,3.3491 8,5 8,5.9314205 8.438666,6.7554495 9.109375,7.3066406 8.7212172,7.4312139 8.3421405,7.5924011 7.9785156,7.7949219 7.8705427,6.2405465 6.5807765,5 5,5 3.3490681,5 2,6.3491 2,8 2,8.9359015 2.4428759,9.7633614 3.1191406,10.314453 1.9938843,10.674603 0.94500278,11.35473 0.11523438,12.359375 L 0,12.498047 l 0,2.488281 0.5,0 9.5,0 0,-2.496094 -0.1152344,-0.138672 C 9.7822378,12.227785 9.6687731,12.115614 9.5585938,12 L 16,12 16,9.4902344 15.884766,9.3515625 C 15.719598,9.1521625 15.544957,8.9632562 15.359375,8.7851562 14.6265,8.0816723 13.781489,7.5900852 12.892578,7.3046875 13.562068,6.7534792 14,5.9304355 14,5 14,3.3491 12.650932,2 11,2 Z m 0,1 c 1.110492,0 2,0.8895 2,2 0,1.1105 -0.889508,2 -2,2 C 9.8895082,7 9,6.1105 9,5 9,3.8895 9.8895082,3 11,3 Z M 5,6 C 6.1104918,6 7,6.8895 7,8 7,9.1105 6.1104918,10 5,10 3.8895082,10 3,9.1105 3,8 3,6.8895 3.8895082,6 5,6 Z m 6.1875,1.9960938 c 0.01046,3.743e-4 0.02079,0.00347 0.03125,0.00391 l -0.09961,0 c 0.02285,5.084e-4 0.04551,-0.00472 0.06836,-0.00391 z M 10.5,8.0351562 10.5,10 l 1,0 0,-1.9628906 c 1.130862,0.1109163 2.242652,0.5843585 3.166016,1.4707031 0.117472,0.1128 0.225665,0.236075 0.333984,0.359375 L 15,11 8.359375,11 C 7.8912915,10.700078 7.3966296,10.473224 6.8867188,10.310547 7.2678185,9.9985155 7.5778753,9.6034327 7.7695312,9.1425781 8.5889387,8.4986561 9.5328571,8.1321473 10.5,8.0351562 Z M 4.5,11.021484 4.5,13 l 1,0 0,-1.978516 c 1.1312095,0.11222 2.2425782,0.599974 3.1660156,1.486328 C 8.783488,12.620613 8.8916805,12.743888 9,12.867188 l 0,1.11914 -8,0 0,-1.083984 c 0.9646339,-1.108418 2.2084517,-1.750356 3.5,-1.88086 z" color="#000" font-family="sans-serif" font-weight="400" overflow="visible" transform="translate(5 1030.376)"/></g></svg>