<svg id="Capa_1" enable-background="new 0 0 512 512" height="512" viewBox="0 0 512 512" width="512" xmlns="http://www.w3.org/2000/svg"><g><path d="m45.99 239-37.57-25.6 37.57-37.58z"/><path d="m75.99 17.179v242.261s127.359 86.759 127.36 86.76c34.62 23.42 80.86 22.91 115.03-1.27l117.63-83.29v-244.461c0-9.488-7.691-17.179-17.179-17.179h-325.662c-9.488 0-17.179 7.691-17.179 17.179zm296.31 218.961h-232.166c-8.072 0-15.02-6.2-15.406-14.263-.412-8.614 6.448-15.737 14.982-15.737h232.163c8.074 0 15.024 6.2 15.41 14.265.411 8.614-6.459 15.735-14.983 15.735zm0-78.71h-232.171c-8.081 0-15.03-6.216-15.402-14.288-.397-8.614 6.458-15.712 14.984-15.712h232.163c8.074 0 15.024 6.2 15.41 14.265.41 8.614-6.46 15.735-14.984 15.735zm0-78.72h-232.166c-8.072 0-15.02-6.2-15.406-14.263-.412-8.614 6.448-15.737 14.982-15.737h232.168c8.082 0 15.034 6.216 15.406 14.29.396 8.613-6.469 15.71-14.984 15.71z"/><path d="m503.82 213.63-37.81 26.77v-64.58z"/><path d="m512 244.6v245.16c0 12.283-9.957 22.24-22.24 22.24h-467.52c-12.283 0-22.24-9.957-22.24-22.24v-245.79l162.21 110.5-93.493 93.493c-5.683 5.683-6.249 14.929-.886 20.916 5.758 6.428 15.71 6.69 21.789.612l97.84-97.84c46.787 30.61 103.25 27.675 144.93.02l97.82 97.82c5.852 5.851 15.354 5.855 21.21 0 5.86-5.86 5.86-15.36 0-21.22l-94.14-94.13z"/></g></svg>