<svg id="Capa_1" enable-background="new 0 0 512.063 512.063" height="512" viewBox="0 0 512.063 512.063" width="512" xmlns="http://www.w3.org/2000/svg"><g><path d="m16.911 445.401v40.539c0 8.284 6.716 15 15 15s15-6.716 15-15v-40.539c-4.805 1.201-9.828 1.848-15 1.848s-10.195-.647-15-1.848z"/><ellipse cx="31.911" cy="385.37" rx="31.879" ry="31.879" transform="matrix(.383 -.924 .924 .383 -336.336 267.377)"/><path d="m256.031 245.005c-7.576 0-15.038-1.28-22.181-3.804l-160.793-56.824v116.414c0 7.409 4.397 14.077 11.161 17.103 109.17 48.841 234.456 48.841 343.626 0 6.763-3.026 11.161-9.693 11.161-17.103v-116.414l-160.793 56.824c-7.143 2.524-14.605 3.804-22.181 3.804z"/><path d="m499.168 94.831-230.952-81.618c-7.884-2.786-16.485-2.786-24.37 0l-230.951 81.618c-17.193 6.076-17.193 30.39 0 36.466l4.016 1.419v192.622c4.805-1.201 9.828-1.848 15-1.848s10.195.647 15 1.848v-182.02l196.936 69.597c7.884 2.786 16.485 2.786 24.37 0l230.952-81.618c17.192-6.076 17.192-30.39-.001-36.466z"/></g></svg>