<svg id="color" enable-background="new 0 0 24 24" height="512" viewBox="0 0 24 24" width="512" xmlns="http://www.w3.org/2000/svg"><path d="m21 1h-18c-1.654 0-3 1.346-3 3v16c0 1.654 1.346 3 3 3h18c1.654 0 3-1.346 3-3v-16c0-1.654-1.346-3-3-3z" fill="#607d8b"/><path d="m21 21h-18c-.551 0-1-.448-1-1v-14h20v14c0 .552-.449 1-1 1z" fill="#fff"/><path d="m21 1h-18c-1.654 0-3 1.346-3 3v16c0 1.654 1.346 3 3 3h18c1.654 0 3-1.346 3-3v-16c0-1.654-1.346-3-3-3z" fill="#607d8b"/><path d="m21 21h-18c-.551 0-1-.448-1-1v-14h20v14c0 .552-.449 1-1 1z" fill="#fff"/><path d="m12 1h-9c-1.654 0-3 1.346-3 3v16c0 1.654 1.346 3 3 3h9v-2h-9c-.551 0-1-.448-1-1v-14h10z" fill="#546d79"/><path d="m12 6h-10v14c0 .552.449 1 1 1h9z" fill="#dedede"/><path d="m20.56 15.5c-1.897 0-3.44-1.543-3.44-3.44v-5.31c0-.414.336-.75.75-.75h5.381c.413 0 .749.336.749.75v5.31c0 1.897-1.543 3.44-3.44 3.44z" fill="#64b5f6"/><path d="m14.935 15.5c-2.031 0-3.685-1.653-3.685-3.685v-5.065c0-.414.336-.75.75-.75h5.869c.414 0 .75.336.75.75v5.065c0 2.032-1.653 3.685-3.684 3.685z" fill="#2196f3"/><path d="m9.065 15.5c-2.031 0-3.685-1.653-3.685-3.685v-5.065c.001-.414.337-.75.751-.75h5.869c.414 0 .75.336.75.75v5.065c0 2.032-1.653 3.685-3.685 3.685z" fill="#64b5f6"/><path d="m3.44 15.5c-1.897 0-3.44-1.543-3.44-3.44v-5.31c0-.414.336-.75.75-.75h5.381c.414 0 .75.336.75.75v5.31c0 1.897-1.543 3.44-3.441 3.44z" fill="#2196f3"/><path d="m24 10.25h-5.381v1.565c0 .872-.304 1.674-.813 2.306.628.837 1.628 1.379 2.753 1.379 1.897 0 3.44-1.543 3.44-3.44v-1.81z" fill="#579ed6"/><path d="m18.619 10.25h-5.869v1.565c0 .835-.28 1.607-.75 2.226.674.886 1.739 1.459 2.935 1.459 1.16 0 2.196-.539 2.872-1.379.508-.632.813-1.434.813-2.306v-1.565z" fill="#1d83d4"/><path d="m12.75 10.25h-5.869v1.81c0 .773-.256 1.486-.687 2.061.676.84 1.712 1.379 2.872 1.379 1.196 0 2.261-.573 2.935-1.459.47-.619.75-1.39.75-2.226v-1.565z" fill="#579ed6"/><path d="m6.881 10.25h-6.881v1.81c0 1.897 1.543 3.44 3.44 3.44 1.125 0 2.125-.542 2.753-1.379.432-.575.687-1.289.687-2.061v-1.81z" fill="#1d83d4"/></svg>