<svg xmlns="http://www.w3.org/2000/svg" enable-background="new 0 0 512 512" viewBox="0 0 512 512"><linearGradient id="a" x1="46.941" x2="465.059" y1="499.694" y2="81.576" gradientUnits="userSpaceOnUse"><stop offset="0" stop-color="#0095da"/><stop offset=".5" stop-color="#00aeee"/><stop offset="1" stop-color="#2bc4f3"/></linearGradient><path fill="url(#a)" d="M474.951,106.76h-0.004H344.23V53.486h9.884c4.417,0,7.998-3.581,7.998-7.998
		s-3.581-7.998-7.998-7.998c-64.1,0-121.877,0-196.227,0c-4.417,0-7.998,3.581-7.998,7.998s3.581,7.998,7.998,7.998h9.884v53.274
		H37.053h-0.004c-20.387,0-36.978,16.589-36.978,36.978c0,100.367,0,114.493,0,293.794c0,20.389,16.589,36.978,36.978,36.978
		h437.898c20.393,0,36.982-16.589,36.982-36.978c0-180.085,0-191.056,0-293.794C511.929,123.351,495.341,106.76,474.951,106.76z
		 M183.766,53.486h144.468v53.274H183.766V53.486z M474.947,122.756c11.568,0,20.986,9.409,20.986,20.982v55.008
		c0,48.877-39.762,88.64-88.64,88.64h-0.57v-6.006c0-14.551-11.84-26.391-26.391-26.391c-14.555,0-26.395,11.84-26.395,26.391v6.006
		H158.062v-6.006c0-14.551-11.84-26.391-26.395-26.391c-14.551,0-26.391,11.84-26.391,26.391v6.006h-0.57
		c-48.877,0-88.64-39.762-88.64-88.64v-55.008c0-11.569,9.413-20.982,20.986-20.982
		C300.991,122.762,425.018,122.756,474.947,122.756z M390.728,281.38v28.008c0,5.733-4.663,10.396-10.396,10.396
		s-10.399-4.663-10.399-10.396V281.38c0-5.733,4.667-10.396,10.399-10.396S390.728,275.647,390.728,281.38z M142.067,281.38v28.008
		c0,5.733-4.667,10.396-10.399,10.396c-5.733,0-10.396-4.663-10.396-10.396V281.38c0-5.733,4.663-10.396,10.396-10.396
		C137.4,270.984,142.067,275.647,142.067,281.38z M495.934,437.532c0,11.571-9.415,20.982-20.986,20.982H37.049
		c-11.571,0-20.982-9.411-20.982-20.982V254.085c18.514,29.546,51.275,49.296,88.64,49.296h0.57v6.006
		c0,14.551,11.84,26.391,26.391,26.391c14.555,0,26.395-11.84,26.395-26.391v-6.006h195.876v6.006
		c0,14.551,11.84,26.391,26.395,26.391c14.551,0,26.391-11.84,26.391-26.391v-6.006h0.57c37.365,0,70.125-19.75,88.64-49.296
		V437.532z"/></svg>