<?xml version="1.0"?>
<svg xmlns="http://www.w3.org/2000/svg" xmlns:xlink="http://www.w3.org/1999/xlink" xmlns:svgjs="http://svgjs.com/svgjs" version="1.1" width="512" height="512" x="0" y="0" viewBox="0 0 512 512" style="enable-background:new 0 0 512 512" xml:space="preserve" class=""><g>
<path xmlns="http://www.w3.org/2000/svg" style="" d="M256,0C115.3,0,0,115.3,0,256s115.3,256,256,256s256-115.3,256-256S396.7,0,256,0z" fill="#9db3bb" data-original="#17ace8" class=""/>
<path xmlns="http://www.w3.org/2000/svg" style="" d="M512,256c0,140.7-115.3,256-256,256V0C396.7,0,512,115.3,512,256z" fill="#1689fc" data-original="#1689fc" class=""/>
<path xmlns="http://www.w3.org/2000/svg" style="" d="M256,436c-16.569,0-30-13.431-30-30s13.431-30,30-30s30,13.431,30,30S272.569,436,256,436z   M309.159,238.598C300.517,244.955,286,258.52,286,278.104V286c0,16.567-13.433,30-30,30s-30-13.433-30-30v-7.896  c0-33.618,17.373-65.654,47.666-87.876C281.503,184.472,286,175.653,286,166c0-16.538-13.462-30-30-30s-30,13.462-30,30  c0,16.567-13.433,30-30,30s-30-13.433-30-30c0-49.629,40.371-90,90-90s90,40.371,90,90C346,194.535,332.23,221.679,309.159,238.598z  " fill="#cae8f9" data-original="#cae8f9" class=""/>
<g xmlns="http://www.w3.org/2000/svg">
	<path style="" d="M286,166c0,9.653-4.497,18.472-12.334,24.229c-6.614,4.852-12.33,10.349-17.666,16.051V316   c16.567,0,30-13.433,30-30v-7.896c0-19.585,14.517-33.149,23.159-39.507C332.23,221.679,346,194.535,346,166   c0-49.629-40.371-90-90-90v60C272.538,136,286,149.462,286,166z" fill="#b7e0f6" data-original="#b7e0f6" class=""/>
	<path style="" d="M286,406c0-16.569-13.431-30-30-30v60C272.569,436,286,422.569,286,406z" fill="#b7e0f6" data-original="#b7e0f6" class=""/>
</g>
<g xmlns="http://www.w3.org/2000/svg">
</g>
<g xmlns="http://www.w3.org/2000/svg">
</g>
<g xmlns="http://www.w3.org/2000/svg">
</g>
<g xmlns="http://www.w3.org/2000/svg">
</g>
<g xmlns="http://www.w3.org/2000/svg">
</g>
<g xmlns="http://www.w3.org/2000/svg">
</g>
<g xmlns="http://www.w3.org/2000/svg">
</g>
<g xmlns="http://www.w3.org/2000/svg">
</g>
<g xmlns="http://www.w3.org/2000/svg">
</g>
<g xmlns="http://www.w3.org/2000/svg">
</g>
<g xmlns="http://www.w3.org/2000/svg">
</g>
<g xmlns="http://www.w3.org/2000/svg">
</g>
<g xmlns="http://www.w3.org/2000/svg">
</g>
<g xmlns="http://www.w3.org/2000/svg">
</g>
<g xmlns="http://www.w3.org/2000/svg">
</g>
</g></svg>
