<svg height="512.001pt" viewBox="0 0 512.001 512.001" width="512.001pt"
    xmlns="http://www.w3.org/2000/svg">
    <path
        d="m512 287.941406v-63.882812c0-7.648438-6.199219-13.847656-13.847656-13.847656h-.003906c-21.824219 0-41.335938-13.289063-49.652344-33.46875-.089844-.21875-.179688-.4375-.273438-.65625-8.410156-20.207032-4.09375-43.460938 11.382813-58.9375 5.40625-5.40625 5.40625-14.175782 0-19.582032l-45.171875-45.171875c-5.410156-5.410156-14.175782-5.410156-19.582032 0-15.480468 15.476563-38.734374 19.789063-58.941406 11.378907-.21875-.089844-.4375-.179688-.65625-.269532-20.175781-8.316406-33.464844-27.828125-33.464844-49.652344v-.003906c0-7.648437-6.199218-13.847656-13.847656-13.847656h-63.882812c-7.648438 0-13.847656 6.199219-13.847656 13.847656v.003906c0 21.824219-13.289063 41.335938-33.46875 49.652344-.21875.089844-.4375.179688-.65625.273438-20.207032 8.410156-43.460938 4.09375-58.9375-11.382813-5.40625-5.40625-14.175782-5.40625-19.582032 0l-45.171875 45.171875c-5.40625 5.410156-5.40625 14.175782 0 19.582032 15.476563 15.480468 19.792969 38.734374 11.382813 58.941406-.09375.21875-.183594.4375-.273438.65625-8.316406 20.175781-27.828125 33.464844-49.652344 33.464844h-.003906c-7.648437 0-13.847656 6.199218-13.847656 13.847656v63.882812c0 7.648438 6.199219 13.847656 13.847656 13.847656h.003906c21.824219 0 41.335938 13.289063 49.652344 33.46875.089844.21875.179688.4375.273438.65625 8.410156 20.207032 4.09375 43.460938-11.382813 58.9375-5.40625 5.40625-5.40625 14.175782 0 19.582032l45.171875 45.171875c5.410156 5.410156 14.175782 5.410156 19.582032 0 15.480468-15.476563 38.734374-19.789063 58.941406-11.378907.21875.089844.4375.179688.65625.269532 20.175781 8.316406 33.464844 27.828125 33.464844 49.652344v.003906c0 7.648437 6.199218 13.847656 13.847656 13.847656h63.882812c7.648438 0 13.847656-6.199219 13.847656-13.847656v-.003906c0-21.820313 13.289063-41.335938 33.46875-49.652344.21875-.089844.4375-.179688.65625-.269532 20.207032-8.410156 43.460938-4.097656 58.9375 11.378907 5.40625 5.410156 14.175782 5.410156 19.582032 0l45.171875-45.171875c5.410156-5.40625 5.410156-14.175782 0-19.582032-15.476563-15.476562-19.789063-38.730468-11.378907-58.9375.089844-.21875.179688-.4375.269532-.65625 8.316406-20.179687 27.828125-33.46875 49.652344-33.46875h.003906c7.648437 0 13.847656-6.199218 13.847656-13.847656zm-256 40.90625c-40.230469 0-72.847656-32.617187-72.847656-72.847656s32.617187-72.847656 72.847656-72.847656 72.847656 32.617187 72.847656 72.847656-32.617187 72.847656-72.847656 72.847656zm0 0"
        fill="#d8d8d8" />
    <path
        d="m512 287.941406v-63.882812c0-7.648438-6.199219-13.847656-13.847656-13.847656h-.003906c-21.824219 0-41.335938-13.289063-49.652344-33.46875-.089844-.21875-.179688-.4375-.273438-.65625-8.410156-20.207032-4.09375-43.460938 11.382813-58.9375 5.40625-5.40625 5.40625-14.175782 0-19.582032l-45.171875-45.171875c-5.410156-5.410156-14.175782-5.410156-19.582032 0-15.480468 15.476563-38.734374 19.789063-58.941406 11.378907-.21875-.089844-.4375-.179688-.65625-.269532-20.175781-8.316406-33.464844-27.828125-33.464844-49.652344v-.003906c0-7.648437-6.199218-13.847656-13.847656-13.847656h-63.882812c-7.648438 0-13.847656 6.199219-13.847656 13.847656v.003906c0 21.824219-13.289063 41.335938-33.46875 49.652344-.21875.089844-.4375.179688-.65625.273438-20.207032 8.410156-43.460938 4.09375-58.9375-11.382813-5.40625-5.40625-14.175782-5.40625-19.582032 0l-45.171875 45.171875c-5.40625 5.410156-5.40625 14.175782 0 19.582032 15.476563 15.480468 19.792969 38.734374 11.382813 58.941406-.09375.21875-.183594.4375-.273438.65625-8.316406 20.175781-27.828125 33.464844-49.652344 33.464844h-.003906c-7.648437 0-13.847656 6.199218-13.847656 13.847656v63.882812c0 7.648438 6.199219 13.847656 13.847656 13.847656h.003906c21.824219 0 41.335938 13.289063 49.652344 33.46875.089844.21875.179688.4375.273438.65625 8.410156 20.207032 4.09375 43.460938-11.382813 58.9375-5.40625 5.40625-5.40625 14.175782 0 19.582032l45.171875 45.171875c5.410156 5.410156 14.175782 5.410156 19.582032 0 15.480468-15.476563 38.734374-19.789063 58.941406-11.378907.21875.089844.4375.179688.65625.269532 20.175781 8.316406 33.464844 27.828125 33.464844 49.652344v.003906c0 7.648437 6.199218 13.847656 13.847656 13.847656h63.882812c7.648438 0 13.847656-6.199219 13.847656-13.847656v-.003906c0-21.820313 13.289063-41.335938 33.46875-49.652344.21875-.089844.4375-.179688.65625-.269532 20.207032-8.410156 43.460938-4.097656 58.9375 11.378907 5.40625 5.410156 14.175782 5.410156 19.582032 0l45.171875-45.171875c5.410156-5.40625 5.410156-14.175782 0-19.582032-15.476563-15.476562-19.789063-38.730468-11.378907-58.9375.089844-.21875.179688-.4375.269532-.65625 8.316406-20.179687 27.828125-33.46875 49.652344-33.46875h.003906c7.648437 0 13.847656-6.199218 13.847656-13.847656zm-256 40.90625c-40.230469 0-72.847656-32.617187-72.847656-72.847656s32.617187-72.847656 72.847656-72.847656 72.847656 32.617187 72.847656 72.847656-32.617187 72.847656-72.847656 72.847656zm0 0"
        fill="#77898e" />
    <path
        d="m117.148438 459.605469c15.480468-15.476563 38.730468-19.792969 58.941406-11.382813.320312.132813.640625.265625.960937.398438 20.085938 8.21875 33.160157 27.824218 33.160157 49.527344v.003906c0 7.648437 6.199218 13.847656 13.847656 13.847656h63.882812c7.648438 0 13.847656-6.199219 13.847656-13.847656v-.003906c0-21.703126 13.070313-41.3125 33.160157-49.527344.320312-.128906.644531-.261719.964843-.394532 20.207032-8.410156 43.460938-4.097656 58.9375 11.378907 5.40625 5.410156 14.175782 5.410156 19.582032 0l45.171875-45.171875c5.410156-5.40625 5.410156-14.175782 0-19.582032-15.476563-15.476562-19.789063-38.730468-11.378907-58.9375.132813-.320312.265626-.644531.394532-.964843 8.222656-20.085938 27.824218-33.160157 49.527344-33.160157h.003906c7.648437 0 13.847656-6.199218 13.847656-13.847656v-63.882812c0-7.648438-6.199219-13.847656-13.847656-13.847656h-.003906c-21.699219 0-41.304688-13.074219-49.527344-33.160157-.128906-.320312-.261719-.640625-.394532-.960937-8.410156-20.207032-4.097656-43.460938 11.378907-58.941406 5.410156-5.40625 5.410156-14.171876 0-19.582032l-45.171875-45.171875c-5.40625-5.40625-14.175782-5.40625-19.582032 0-4.054687 4.054688-8.644531 7.332031-13.570312 9.828125l-.023438.019532c23.003907 35.8125 37.605469 80.910156 37.605469 126.636718 0 126.613282-103.367187 229.984375-229.984375 229.984375-45.726562 0-90.636718-14.976562-126.445312-37.984375l-.027344.035156c-2.515625 5.066407-5.855469 9.78125-10.011719 13.9375-5.40625 5.410157-5.40625 14.175782 0 19.582032l45.171875 45.171875c5.40625 5.40625 14.175782 5.40625 19.582032 0zm0 0"
        fill="#acbdc2" />
    <path
        d="m256 131.121094c-68.96875 0-124.878906 55.910156-124.878906 124.878906s55.910156 124.878906 124.878906 124.878906 124.878906-55.910156 124.878906-124.878906-55.910156-124.878906-124.878906-124.878906zm0 197.726562c-40.230469 0-72.847656-32.617187-72.847656-72.847656s32.617187-72.847656 72.847656-72.847656 72.847656 32.617187 72.847656 72.847656-32.617187 72.847656-72.847656 72.847656zm0 0"
        fill="#77898e" />
    <path
        d="m152.976562 277.855469c0-68.96875 55.910157-124.878907 124.878907-124.878907 28.914062 0 55.53125 9.832032 76.695312 26.328126-22.851562-29.324219-58.496093-48.183594-98.550781-48.183594-68.96875 0-124.878906 55.910156-124.878906 124.878906 0 40.054688 18.859375 75.699219 48.183594 98.550781-16.496094-21.167969-26.328126-47.78125-26.328126-76.695312zm0 0"
        fill="#595959" />
</svg>