<svg height="511pt" viewBox="-60 1 511 511.99925" width="511pt" xmlns="http://www.w3.org/2000/svg"><path d="m195.5 151c-57.890625 0-105 47.109375-105 105s47.109375 105 105 105 105-47.109375 105-105-47.109375-105-105-105zm70.605469 85.605469-75 75c-2.929688 2.929687-6.769531 4.394531-10.605469 4.394531s-7.675781-1.464844-10.605469-4.394531l-45-45c-5.859375-5.859375-5.859375-15.351563 0-21.210938s15.351563-5.859375 21.210938 0l34.394531 34.394531 64.394531-64.394531c5.859375-5.859375 15.351563-5.859375 21.210938 0s5.859375 15.351563 0 21.210938zm0 0"/><path d="m375.5 61h-35.140625c-50.714844 0-98.394531-20.746094-134.253906-56.605469-5.859375-5.859375-15.351563-5.859375-21.210938 0-35.859375 35.859375-83.539062 56.605469-134.253906 56.605469h-35.140625c-8.292969 0-15 6.707031-15 15v180c0 134.792969 98.085938 197.492188 162.992188 238.316406 5.933593 3.722656 25.691406 17.683594 32.007812 17.683594 6.300781 0 25.535156-13.601562 31.449219-17.316406 65.128906-40.851563 163.550781-103.613282 163.550781-238.683594v-180c0-8.292969-6.710938-15-15-15zm-180 330c-74.445312 0-135-60.558594-135-135 0-74.445312 60.554688-135 135-135 74.441406 0 135 60.554688 135 135 0 74.441406-60.558594 135-135 135zm0 0"/></svg>