<svg xmlns="http://www.w3.org/2000/svg" xmlns:xlink="http://www.w3.org/1999/xlink" width="32" height="32" viewBox="0 0 8.467 8.467"><defs><linearGradient id="b"><stop offset="0" stop-color="#a2cdf5"/><stop offset="1" stop-color="#589dee"/></linearGradient><linearGradient id="a"><stop offset="0" stop-color="#0952ec"/><stop offset="1" stop-color="#589dee"/></linearGradient><linearGradient id="c" x1="28" x2="4" y1="18" y2="18" gradientUnits="userSpaceOnUse" xlink:href="#a"/><linearGradient id="d" x1="1.852" x2="6.615" y1="293.296" y2="293.296" gradientUnits="userSpaceOnUse" xlink:href="#b"/></defs><g transform="translate(0 -288.533)"><path fill="url(#c)" fill-rule="evenodd" d="M 16 2 C 14.892 2 14 2.8920001 14 4 L 14 6.1699219 A 12 12 0 0 0 4 18 A 12 12 0 0 0 16 30 A 12 12 0 0 0 28 18 A 12 12 0 0 0 18 6.1816406 L 18 4 C 18 2.8920001 17.108 2 16 2 z " paint-order="stroke fill markers" transform="translate(0 288.533) scale(.26458)"/><path fill="url(#d)" fill-rule="evenodd" d="m 6.3499997,293.29584 a 2.1166666,2.1166666 0 0 1 -2.1166666,2.11666 2.1166666,2.1166666 0 0 1 -2.1166665,-2.11666 2.1166666,2.1166666 0 0 1 2.1166665,-2.11667 2.1166666,2.1166666 0 0 1 2.1166666,2.11667 z" paint-order="stroke fill markers"/><path fill="#fff" d="M 4.2285156,291.96875 A 0.26460981,0.26460981 0 0 0 3.96875,292.23828 v 1.05664 a 0.26460981,0.26460981 0 0 0 0.2636719,0.26563 h 1.0585937 a 0.26465,0.26465 0 1 0 0,-0.5293 H 4.4980469 v -0.79297 a 0.26460981,0.26460981 0 0 0 -0.2695313,-0.26953 z" color="#000" font-family="sans-serif" font-weight="400" overflow="visible" style="line-height:normal;font-variant-ligatures:normal;font-variant-position:normal;font-variant-caps:normal;font-variant-numeric:normal;font-variant-alternates:normal;font-feature-settings:normal;text-indent:0;text-align:start;text-decoration-line:none;text-decoration-style:solid;text-decoration-color:#000;text-transform:none;text-orientation:mixed;shape-padding:0;isolation:auto;mix-blend-mode:normal"/></g></svg>