<svg xmlns="http://www.w3.org/2000/svg" enable-background="new 0 0 24 24" viewBox="0 0 24 24"><linearGradient id="a" x1="6" x2="6" y1="6.625" y2="21.063" gradientUnits="userSpaceOnUse"><stop offset="0" stop-color="#1531ff"/><stop offset="1" stop-color="#afb"/></linearGradient><path fill="url(#a)" d="M8.1,3.9C7.5,3.3,6.6,2.9,5.7,3C4.2,3.1,3,4.5,3,6.1V12c0,1.1,0.9,2,2,2h3c0.6,0,1-0.4,1-1V6C9,5.2,8.7,4.4,8.1,3.9z"/><linearGradient id="b" x1="7.444" x2="32.819" y1="12.068" y2="11.881" gradientUnits="userSpaceOnUse"><stop offset="0" stop-color="#1531ff"/><stop offset="1" stop-color="#afb"/></linearGradient><path fill="url(#b)" d="M18,3H6C5.4,3,5,3.4,5,4s0.4,1,1,1c0.3,0,0.5,0.1,0.7,0.3C6.9,5.5,7,5.7,7,6v13.1c0,0.8,0.4,1.4,1.1,1.8c0.7,0.3,1.5,0.3,2.1-0.1L14,18l3.8,2.7c0.3,0.2,0.8,0.4,1.2,0.4c0.3,0,0.6-0.1,0.9-0.2c0.7-0.3,1.1-1,1.1-1.8V6C21,4.3,19.7,3,18,3z"/></svg>